<svg id="Layer_1" data-name="Layer 1" xmlns="http://www.w3.org/2000/svg" viewBox="0 0 62.12 59.05"><defs><style>.cls-1{fill:#fff;}.cls-2{fill:#ed2189;}</style></defs><title>g</title><path class="cls-1" d="M60.74,52.07a37.3,37.3,0,0,0-4-3.13,21.67,21.67,0,0,0-4.49-2.31,26.77,26.77,0,0,0-5.06-1.33l-.61-.1.46-.15a18.55,18.55,0,0,0,6.21-3.47A14.7,14.7,0,0,0,57,36.4a15,15,0,0,0,1.28-6,13,13,0,0,0-1.21-5.46,17.8,17.8,0,0,0-2.93-4.47A16.8,16.8,0,0,0,50,17a23.21,23.21,0,0,0-11.48-2.6,28.94,28.94,0,0,0-6.35.66,11.57,11.57,0,0,0-3-7,10.42,10.42,0,0,0-7.57-3.2C19,4.84,19.3,5,19.3,5A10.09,10.09,0,0,0,8.3.45,8.33,8.33,0,0,0,2.41,7.33c-1.27.71-3.8,5-1.2,9.12A10,10,0,0,0,9,20.18a6.21,6.21,0,0,0,2.17-.35c3.47-1.27,5.68-2,7.33-2,1.13,0,2.23.34,4,2l.3.25a14.07,14.07,0,0,0-2.82,4.25,15.25,15.25,0,0,0-1.24,6,14.93,14.93,0,0,0,1,5.53,13.25,13.25,0,0,0,1.62,3c-.7.51-1.36,1-2,1.53a17.79,17.79,0,0,0-2.94,3l-.45.61.06.75a16.06,16.06,0,0,0,2.18,6.62,18.68,18.68,0,0,0,5.5,5.83l.84.59,1-.34a48.26,48.26,0,0,1,7.57-2,41.06,41.06,0,0,1,15.78.16,27.2,27.2,0,0,1,7.06,2.68l1.46.8,4.8-5.84ZM45,35.57c-1.46,1.18-3.65,1.78-6.48,1.78s-5.11-.59-6.53-1.76-2-2.81-2-5.24.64-4.1,2-5.21,3.61-1.79,6.52-1.79,5,.61,6.47,1.8,2,2.81,2,5.2S46.33,34.48,45,35.57Z" transform="translate(-0.08 -0.13)"/><path class="cls-2" d="M29.57,19.13a9.49,9.49,0,0,0-1.83-9.68C20.81,2.52,12.16,12,7.63,8.81,3.8,5.7,11.08,1,14.3,3.27a6.06,6.06,0,0,0-5.38-.91C3.66,4.07,2.64,10.48,7.47,13.43c1.19.73,2.15.7,3,1.18-2.74,1-9.15-.12-8.11-3.52C.47,16.47,7.68,19,10.43,18c6.88-2.52,9.46-3.39,13.33.38C23.76,18.33,27.26,21.44,29.57,19.13Z" transform="translate(-0.08 -0.13)"/><path class="cls-2" d="M52.65,21.71a15.89,15.89,0,0,1,2.64,4,10.94,10.94,0,0,1,1,4.62A13,13,0,0,1,55.2,35.6a12.57,12.57,0,0,1-3.3,4.47,16.59,16.59,0,0,1-5.55,3.09,23.91,23.91,0,0,1-7.86,1.17,26,26,0,0,1-6.33-.69,16.91,16.91,0,0,1-4.77-2,5.1,5.1,0,0,0-1.56,1.89,5,5,0,0,0-.48,2.07,6.65,6.65,0,0,0,.42,2.25A4.51,4.51,0,0,0,27.39,50a30.75,30.75,0,0,1,6.48-2.37,31.77,31.77,0,0,1,7.26-.75,34.9,34.9,0,0,1,5.7.42,25,25,0,0,1,4.68,1.23,19.69,19.69,0,0,1,4.08,2.1,38.21,38.21,0,0,1,3.84,3l-2.52,3.06a28.84,28.84,0,0,0-7.59-2.88,37.11,37.11,0,0,0-8.19-.9,48.42,48.42,0,0,0-8.37.72,50.13,50.13,0,0,0-7.89,2A16.5,16.5,0,0,1,20,50.42,13.86,13.86,0,0,1,18,44.63a15.64,15.64,0,0,1,2.61-2.7q1.59-1.32,3.63-2.7a11.91,11.91,0,0,1-2.7-4.08,13,13,0,0,1-.9-4.8,13.34,13.34,0,0,1,1.08-5.25A12.25,12.25,0,0,1,25,20.63a16.59,16.59,0,0,1,5.55-3.09,24.12,24.12,0,0,1,7.92-1.17A21.14,21.14,0,0,1,49,18.71,14.31,14.31,0,0,1,52.65,21.71ZM38.49,39.35q5,0,7.74-2.22T49,30.35q0-4.5-2.76-6.75t-7.74-2.25q-5.1,0-7.8,2.25T28,30.35q0,4.56,2.7,6.78T38.49,39.35Z" transform="translate(-0.08 -0.13)"/></svg>