<svg xmlns="http://www.w3.org/2000/svg" viewBox="0 0 165.22 79.03"><defs><style>.cls-1{fill:#9e0404;}</style></defs><title>logo_victory</title><g id="Layer_18" data-name="Layer 18"><g id="Layer_29" data-name="Layer 29"><path class="cls-1" d="M154,0A11.28,11.28,0,0,0,142.68,11.3c0,.32,0,.63,0,.94l-23,22.95a38.8,38.8,0,0,1,0,20.62L153,22.52c.31,0,.62.05.94.05A11.27,11.27,0,1,0,154,0Zm0,14.56a3.3,3.3,0,1,1,3.29-3.29A3.29,3.29,0,0,1,154,14.59Z"/><path class="cls-1" d="M82.63,11.77A33.69,33.69,0,0,0,49.56,39.28L22.49,12.21c0-.31.05-.62.05-.94A11.27,11.27,0,1,0,11.27,22.54c.32,0,.63,0,.94-.05l46,46c.43.46.87.9,1.33,1.33l.22.23h0A33.62,33.62,0,1,0,82.63,11.77ZM8,11.27a3.3,3.3,0,1,1,3.3,3.29A3.3,3.3,0,0,1,8,11.27ZM82.63,64.49a19,19,0,0,1-12.85-5l-1.25-1.25a19.08,19.08,0,1,1,14.1,6.24Z"/></g></g></svg>
