<svg xmlns="http://www.w3.org/2000/svg" viewBox="0 0 1013 600"><defs><style>.cls-1{fill:#9e9d9d;}</style></defs><title>logo_victory_breadvan</title><g id="breadvan_outlines" data-name="breadvan outlines"><g id="n_copy" data-name="n copy"><g id="Layer_27_copy_2" data-name="Layer 27 copy 2"><path class="cls-1" d="M920,467.55a51.35,51.35,0,0,0-37.58-16.4,50.69,50.69,0,0,0-26.79,7.61v-7.59h-26v56.36h.11a56.09,56.09,0,0,0,15.09,37.41,52.82,52.82,0,0,0,16.36,11.77V523.94a30.51,30.51,0,0,1-5.58-16.41h0v-2.86a30.17,30.17,0,0,1,8.1-19.26,25.28,25.28,0,0,1,37.38,0,30.77,30.77,0,0,1,2.6,38.48v32.79A52.77,52.77,0,0,0,920,544.94C940.13,523.61,940.13,488.89,920,467.55Z"/></g></g><g id="a_copy" data-name="a copy"><path class="cls-1" d="M823.37,503.24v-1h0a52.69,52.69,0,1,0-26,47.42v7.69h26V505C823.38,504.42,823.38,503.83,823.37,503.24Zm-33.8,19.83a26.83,26.83,0,1,1,7.8-20.27v2.64A26.66,26.66,0,0,1,789.57,523.07Z"/></g><g id="v_copy" data-name="v copy"><path class="cls-1" d="M711.11,474.38a56.81,56.81,0,0,0-9.26-13.74,53.9,53.9,0,0,0-10.3-8.78L664.12,529l-27.43-77.17a53.59,53.59,0,0,0-10.3,8.78,56.75,56.75,0,0,0-9.26,13.73l27.66,78.39a49.94,49.94,0,0,0,38.67,0Z"/></g><g id="d_copy" data-name="d copy"><path class="cls-1" d="M610.5,505q0-.89,0-1.77V404.31h-26v54.24a52.87,52.87,0,1,0,26,47.43h0ZM538.81,523a26.79,26.79,0,1,1,45.69-20.27v2.64A26.78,26.78,0,0,1,538.81,523Z"/></g><g id="a_copy-2" data-name="a copy"><path class="cls-1" d="M498.16,503.2v-1h0a52.69,52.69,0,1,0-26,47.42v7.69h26V505Q498.18,504.09,498.16,503.2ZM464.36,523a26.83,26.83,0,1,1,7.8-20.27v2.64A26.66,26.66,0,0,1,464.36,523Z"/></g><g id="e_copy" data-name="e copy"><g id="Layer_17_copy_2" data-name="Layer 17 copy 2"><path class="cls-1" d="M357.29,517.87a26.81,26.81,0,0,1-46.28-.22h16.44v-26H310.56a26.84,26.84,0,0,1,47.31,0h27.62a52.76,52.76,0,1,0-.26,26.23Z"/></g></g><g id="r_copy" data-name="r copy"><path class="cls-1" d="M196.84,509.45a32.18,32.18,0,0,1,8.22-23.68,24.62,24.62,0,0,1,37.15,0,30.48,30.48,0,0,1,4.14,5.72h27.91a56.9,56.9,0,0,0-12.93-23.34,50.88,50.88,0,0,0-37.7-16.84h0a50.9,50.9,0,0,0-37.7,16.84,58.86,58.86,0,0,0,0,78.71A54.13,54.13,0,0,0,196.84,556Z"/></g><g id="b_copy" data-name="b copy"><path class="cls-1" d="M148.38,466.77a52.88,52.88,0,0,0-64.07-8.19V404.33h-26v98.91c0,.57,0,1.15,0,1.73v1h0a52.78,52.78,0,1,0,90.05-39.23ZM130,523.05a26.78,26.78,0,0,1-45.69-17.63v-2.64A26.79,26.79,0,1,1,130,523.05Z"/></g></g><g id="Layer_18" data-name="Layer 18"><g id="Layer_8" data-name="Layer 8"><rect class="cls-1" x="277.4" y="70.17" width="62" height="287.15" transform="translate(-60.81 280.67) rotate(-45)"/><path class="cls-1" d="M181.23,134.61a48,48,0,1,1,48-48A48.1,48.1,0,0,1,181.23,134.61Zm0-62.08a14,14,0,1,0,14,14A14.06,14.06,0,0,0,181.23,72.53Z"/><path id="right_arm_2" data-name="right arm 2" class="cls-1" d="M649.7,232.09a164.12,164.12,0,0,1-6.08,44.39L785.84,134.26,742,90.42l-98.14,98.15A164.37,164.37,0,0,1,649.7,232.09Z"/><path class="cls-1" d="M789.57,134.74a48,48,0,1,1,48-48.05A48.1,48.1,0,0,1,789.57,134.74Zm0-62.09a14,14,0,1,0,14,14A14.06,14.06,0,0,0,789.57,72.65Z"/><path class="cls-1" d="M485.5,375.47c-79.06,0-143.38-64.32-143.38-143.38S406.44,88.71,485.5,88.71,628.88,153,628.88,232.09,564.56,375.47,485.5,375.47Zm0-224.76a81.38,81.38,0,1,0,81.38,81.38A81.48,81.48,0,0,0,485.5,150.71Z"/></g></g></svg>
