<svg xmlns="http://www.w3.org/2000/svg" viewBox="0 0 274 47.82"><defs><style>.cls-1{fill:#404040;}</style></defs><title>logo_breadvan</title><g id="breadvan_outline_small" data-name="breadvan outline small"><path class="cls-1" d="M269.27,19.76A16,16,0,0,0,249.15,17V14.64H241V32.26h0A17.52,17.52,0,0,0,245.78,44a16.44,16.44,0,0,0,5.11,3.67V37.38a9.48,9.48,0,0,1-1.74-5.12h0v-.9a9.47,9.47,0,0,1,2.53-6,7.9,7.9,0,0,1,11.68,0,9.63,9.63,0,0,1,.82,12V47.62A16.64,16.64,0,0,0,269.27,44,17.84,17.84,0,0,0,269.27,19.76Z"/><path class="cls-1" d="M239.08,30.92V30.6h0A16.45,16.45,0,1,0,231,45.42v2.4h8.12V31.47A5,5,0,0,0,239.08,30.92Zm-10.56,6.19A8.38,8.38,0,1,1,231,30.78v.82A8.34,8.34,0,0,1,228.52,37.11Z"/><path class="cls-1" d="M204,21.9a18,18,0,0,0-2.89-4.3,17,17,0,0,0-3.22-2.74L189.32,39l-8.57-24.12a16.65,16.65,0,0,0-3.22,2.74,17.71,17.71,0,0,0-2.9,4.29l8.65,24.5a15.45,15.45,0,0,0,6,1.22,15.7,15.7,0,0,0,6-1.22Z"/><path class="cls-1" d="M172.56,31.45V0h-8.12V17a16.52,16.52,0,1,0,8.11,14.82h0Zm-22.4,5.65a8.37,8.37,0,1,1,14.28-6.33v.82a8.37,8.37,0,0,1-14.28,5.51Z"/><path class="cls-1" d="M137.46,30.9v-.31h0a16.48,16.48,0,1,0-8.12,14.81v2.41h8.13V30.9Zm-10.57,6.2a8.38,8.38,0,1,1,2.44-6.33v.82A8.34,8.34,0,0,1,126.89,37.1Z"/><path class="cls-1" d="M93.43,35.49a7.88,7.88,0,0,1-1.29,1.66,8.38,8.38,0,0,1-11.84,0A8.49,8.49,0,0,1,79,35.42h5.14V27.29H78.83a8.38,8.38,0,0,1,13.31-2,8,8,0,0,1,1.47,2h8.64a16.55,16.55,0,1,0-.09,8.2Z"/><path class="cls-1" d="M43.29,32.86a10.05,10.05,0,0,1,2.57-7.4,7.68,7.68,0,0,1,11.61,0,9.16,9.16,0,0,1,1.29,1.78h8.73a17.9,17.9,0,0,0-4-7.29,15.92,15.92,0,0,0-11.78-5.26h0A15.94,15.94,0,0,0,39.88,20a18.42,18.42,0,0,0,0,24.6,17.27,17.27,0,0,0,3.41,2.84Z"/><path class="cls-1" d="M28.15,19.52A16.53,16.53,0,0,0,8.13,17V0H0V31.78H0A16.49,16.49,0,1,0,28.15,19.52ZM22.41,37.11A8.37,8.37,0,0,1,8.13,31.6v-.83a8.37,8.37,0,1,1,14.28,6.34Z"/></g></svg>
